<svg xmlns="http://www.w3.org/2000/svg" viewBox="0 0 113.33 137.92"><defs><style>.cls-1{fill:#de9e48;stroke-width:5px;}.cls-1,.cls-2,.cls-3{stroke:#de9e48;stroke-miterlimit:10;}.cls-2,.cls-4{fill:#fff;}.cls-2{stroke-width:7px;}.cls-3{fill:none;stroke-width:10px;}</style></defs><g id="Layer_2" data-name="Layer 2"><g id="Layer_1-2" data-name="Layer 1"><rect class="cls-1" x="8.33" y="40.42" width="77" height="95" rx="12"/><path class="cls-2" d="M3.75,30.36a12.34,12.34,0,0,1,4.43-12A11.39,11.39,0,0,1,15,15.73a8.86,8.86,0,0,1,1.26.06,8.07,8.07,0,0,0,8.08-4.08c1.77-3.32,4.2-6.18,7.91-7.51A12.55,12.55,0,0,1,42.35,5a11,11,0,0,1,2,1.47,6.64,6.64,0,0,0,8.2.4,17,17,0,0,1,13.1-2.83,15.67,15.67,0,0,1,11.55,10.4,7.22,7.22,0,0,0,5.39,4.93,12.84,12.84,0,0,1,8.78,6.34,10.84,10.84,0,0,1-3.57,13.51c-4.23,3-10.08,3.16-15.48,3.15-10.52,0-21-.15-31.56-.29C28.55,42,7.06,45.8,3.75,30.36Z"/><path class="cls-3" d="M88,60.42h13.61a6.7,6.7,0,0,1,6.7,6.7v37.24a9.06,9.06,0,0,1-9.06,9.06H88A13.69,13.69,0,0,1,74.33,99.73V74.11A13.69,13.69,0,0,1,88,60.42Z"/><rect class="cls-4" x="10.83" y="28.92" width="13" height="35" rx="6.5"/></g></g></svg>