<svg xmlns="http://www.w3.org/2000/svg" viewBox="0 0 146.34 120.02"><defs><style>.cls-1,.cls-2{fill:#de9e48;}.cls-1,.cls-3{stroke:#de9e48;stroke-miterlimit:10;}.cls-1{stroke-linecap:round;}.cls-3{fill:none;stroke-linecap:square;stroke-width:3px;}</style></defs><g id="Layer_2" data-name="Layer 2"><g id="Layer_6" data-name="Layer 6"><path class="cls-1" d="M73.83,112.6a2.56,2.56,0,0,1,1.29,0L87.18,116l8.31,2.32c1.18.33.71,1.23-.64,1.23H54.1c-1.35,0-1.82-.9-.64-1.23L61.77,116Z"/><polygon class="cls-2" points="75.16 67.52 72.16 67.52 66.16 63.85 57.16 56.52 31.16 34.52 74.16 34.52 114.16 34.52 92.16 53.77 81.16 62.94 75.16 67.52"/><path class="cls-3" d="M1.89,7.26C.66,4,2.37,3,6.6,2.92l66.53-.71,66.53-.71c4.24,0,6,1.52,4.81,4.25L111.52,36.12,77.38,67.6a5.43,5.43,0,0,1-7.1.07L35.47,36.93Z"/><line class="cls-3" x1="74.66" y1="118.02" x2="74.16" y2="70.97"/></g></g></svg>