<svg xmlns="http://www.w3.org/2000/svg" viewBox="0 0 319.02 423.44"><defs><style>.cls-1{fill:#de9e48;stroke:#000;stroke-miterlimit:10;stroke-width:3px;}</style></defs><g id="Layer_2" data-name="Layer 2"><g id="Layer_1-2" data-name="Layer 1"><path class="cls-1" d="M315.93,368.63c-49,37.15-103.55,54.79-164.47,53.21C96.66,420.42,48,402.14,3.14,369.08a64.58,64.58,0,0,1,6.48-2.31c14.29-3.37,28.5-7.26,42.94-9.8,16.32-2.86,28.89-11.05,39.18-23.58a124.83,124.83,0,0,0,18.62-30c.68-1.6.87-2.65-.73-3.8-24.37-17.42-39.69-41.91-53.28-67.85-3.84-7.32-8.67-14.18-13.48-20.93C33.9,198.26,29.69,184.41,31,169c.91-10.8,4.55-14.94,15.06-17.74-.28-1.83-.62-3.71-.84-5.6-2-17.95-3.57-35.89-2.09-54,3.19-38.87,25-63.89,59.13-79.45A120.79,120.79,0,0,1,154.86,1.52c16.45.26,32.78.66,48.71,5.78,26,8.35,47.14,22.9,61.15,46.7,7.94,13.48,10.92,28.41,11.22,43.91.32,17,0,34-3,50.86-.16.91.76,2.75,1.53,3,8.75,2.63,12.51,7,13.43,16.27,1.21,12.09-1.37,23.51-6.82,34.24-1.87,3.68-4.62,6.89-6.85,10.39-4,6.23-8.26,12.3-11.67,18.83-9.73,18.63-20.28,36.7-35,51.93-5.51,5.72-11.86,10.65-18,15.77-1.71,1.44-2,2.45-1.12,4.59a126.07,126.07,0,0,0,18.1,29.46c10.75,13.31,24.3,21.08,41.22,24.09,15.23,2.7,30.22,6.8,45.32,10.3C313.91,367.8,314.61,368.14,315.93,368.63Z"/></g></g></svg>