<svg xmlns="http://www.w3.org/2000/svg" viewBox="0 0 799.36 795.54"><defs><style>.cls-1{fill:#de9e48;}</style></defs><g id="Layer_2" data-name="Layer 2"><g id="Layer_1-2" data-name="Layer 1"><path class="cls-1" d="M435.57,795.54H364.83v-6c0-28.17-.07-56.33.08-84.5,0-4.15-.7-5.9-5.45-6.55C232.58,681.24,130.85,588.15,102.09,463.08c-1.93-8.42-3-17-4.56-25.55-.26-1.45-.61-2.88-1-4.59H0V362.67H95.65c2.74-13.95,4.66-27.32,8-40.32,23.11-88.93,75.61-154.86,156.54-198.09,31.3-16.71,64.87-26.77,100-31.36,3.69-.48,4.62-1.66,4.61-5.22-.14-27.17-.08-54.33-.08-81.5V0h70.79V23.13c0,21.5,0,43-.08,64.49,0,3,.19,4.7,4,5.2C508.39,102,567.71,131,616.85,180.09c46.3,46.29,74.48,102.11,85.44,166.63a73.48,73.48,0,0,1,1.36,10.4c.1,4.19,1.55,5.58,6,5.55,27.83-.22,55.66-.11,83.5-.11h6.24v70.19H704.42c-1.95,10.27-3.54,20.08-5.69,29.77-25.94,116.93-118.52,208-236.17,232.34-7.33,1.51-14.72,2.92-22.15,3.73-3.87.42-4.94,1.65-4.92,5.47.15,28.33.08,56.66.08,85ZM400,664.42c147.21,0,266.55-117.57,269.17-263.73,2.7-150.12-117.87-273.23-268.32-273.52-146.17-.28-265.25,116.15-269.14,261.18C127.63,539.36,248.36,663.84,400,664.42Z"/><path class="cls-1" d="M400.41,545.78c-81.22.74-149.44-66.25-150.09-147.37-.68-85.08,65.26-152.07,150.31-152.72,81.23-.62,149.34,66.66,150,148.18C551.32,477.88,484.94,545,400.41,545.78Z"/></g></g></svg>