<svg xmlns="http://www.w3.org/2000/svg" viewBox="0 0 473.66 477"><defs><style>.cls-1{fill:#de9e48;}</style></defs><g id="Layer_2" data-name="Layer 2"><g id="Layer_1-2" data-name="Layer 1"><path class="cls-1" d="M245.3,0c5.51,3.09,11.38,5.69,16.42,9.41a29,29,0,0,1,11.56,20,148.33,148.33,0,0,1,1,19.44q.1,84,0,168c0,8.34-1.07,16.43-5.59,23.76-6.61,10.69-16.3,16.56-28.59,17.67-13.17,1.2-24.17-3.73-32.59-13.87a35.93,35.93,0,0,1-8.05-23.35c-.15-61.63-.3-123.25.07-184.87.1-16.13,9.13-29.35,27-35.29a14.48,14.48,0,0,0,1.88-1Z"/><path class="cls-1" d="M236.85,477c-34.9-1.09-68.39-7.74-100.1-22.79A240.63,240.63,0,0,1,81.22,418,237,237,0,0,1,3.91,282.48c-1.82-9.47-2.16-19.24-3-28.9a154.93,154.93,0,0,1-.89-19c1.2-29.1,6.48-57.37,17.59-84.46A230.79,230.79,0,0,1,47.05,98C58.63,82.71,71.56,68.56,86.81,56.66c5.06-3.94,10.06-6.91,16.52-8.31,9.25-2,21.69,3.37,26.6,10.12,10.25,14.11,6.19,31.61-7.52,42-15.1,11.4-27.08,26-37.26,42C71.69,163.54,62.37,186.25,59,211.16c-1.35,10.05-2.9,20.24-2.66,30.32C56.93,266.15,61.68,290,72,312.71a193.1,193.1,0,0,0,29.69,46.14c15.78,18.4,34.81,32.43,56.36,43.06,15.92,7.86,32.64,13.72,50.44,15.69,10.71,1.19,21.5,3,32.19,2.6a181.79,181.79,0,0,0,126.28-55.56,174.55,174.55,0,0,0,38.52-60.9,188.75,188.75,0,0,0,11.31-52.22c2.15-29.88-3.23-58.24-15.35-85.46-7.39-16.62-16.81-32-29.35-45.23-7.95-8.38-16.68-16-24.9-24.15C334.29,84,334.5,64.92,348.62,53.82c11-8.63,23.79-9.07,35.88.84a301.48,301.48,0,0,1,25.9,24c13.45,14,24.5,29.78,33.91,46.77a232.31,232.31,0,0,1,22.41,57.35c2.47,10.07,3.83,20.45,5.08,30.76a229.81,229.81,0,0,1,1.86,27.24,234.27,234.27,0,0,1-5.48,49.4,226,226,0,0,1-18.85,54.3,241.54,241.54,0,0,1-33.22,50,235.19,235.19,0,0,1-54.93,47c-24.36,15-50.66,25.59-79,30.42-10.11,1.73-20.38,2.61-30.58,3.78C246.7,476.21,241.77,476.56,236.85,477Z"/></g></g></svg>